{"title":"Red.Riding.Hood.2011.720p.BRRip.x264.AC3-HDLiTE","uid":6480119,"size":2272554869,"categoryP":"video","categoryS":"hd___movies","magnet":"?xt=urn:btih:a73ff8fc98535ef7838a2aed089a469d4ffb6a40&amp;dn=Red.Riding.Hood.2011.720p.BRRip.x264.AC3-HDLiTE&amp;tr=udp%3A%2F%2Ftracker.openbittorrent.com%3A80&amp;tr=udp%3A%2F%2Fopen.demonii.com%3A1337&amp;tr=udp%3A%2F%2Ftracker.coppersurfer.tk%3A6969&amp;tr=udp%3A%2F%2Fexodus.desync.com%3A6969","seeders":0,"leechers":1,"uploader":"Test_Verify","files":4,"time":1308482249,"description":"ooooo   ooooo oooooooooo.   ooooo         o8o  ooooooooooooo oooooooooooo\n`888'   `888' `888'   `Y8b  `888'         `&quot;'  8'   888   `8 `888'     `8\n888     888   888      888  888         oooo       888       888\n888ooooo888   888      888  888         `888       888       888oooo8\n888     888   888      888  888          888       888       888    &quot;\n888     888   888     d88'  888       o  888       888       888       o\no888o   o888o o888bood8P'   o888ooooood8 o888o     o888o     o888ooooood8\n\nPRESENTS:\n\nRed.Riding.Hood.2011.720p.BRRip.x264.AC3-HDLiTE\n\nEncoded By                       : Lifechanger\nSource                           : 1080p BluRay x264-SECTOR7\nIMDB                             : &lt;a href=&quot; http://www.imdb.com/title/tt1486185/&quot; rel=&quot;nofollow&quot; target=&quot;_NEW&quot;&gt; http://www.imdb.com/title/tt1486185/&lt;/a&gt;\n\nGeneral\nFormat                           : Matroska\nFile size                        : 2.10 GiB\nDuration                         : 1h 40mn\nOverall bit rate                 : 2 992 Kbps\n\nVideo\nID                               : 1\nFormat                           : AVC\nFormat/Info                      : Advanced Video Codec\nFormat profile                   : &lt;a class=&quot;__cf_email__&quot; href=&quot;/cdn-cgi/l/email-protection&quot; data-cfemail=&quot;db93b2bcb39b97eff5ea&quot;&gt;[email&amp;#160;protected]&lt;/a&gt;&lt;script cf-hash='f9e31' type=&quot;text/javascript&quot;&gt;\n/* &lt;![CDATA[ */!function(){try{var t=&quot;currentScript&quot;in document?document.currentScript:function(){for(var t=document.getElementsByTagName(&quot;script&quot;),e=t.length;e--;)if(t[e].getAttribute(&quot;cf-hash&quot;))return t[e]}();if(t&amp;&amp;t.previousSibling){var e,r,n,i,c=t.previousSibling,a=c.getAttribute(&quot;data-cfemail&quot;);if(a){for(e=&quot;&quot;,r=parseInt(a.substr(0,2),16),n=2;a.length-n;n+=2)i=parseInt(a.substr(n,2),16)^r,e+=String.fromCharCode(i);e=document.createTextNode(e),c.parentNode.replaceChild(e,c)}}}catch(u){}}();/* ]]&gt; */&lt;/script&gt;\nFormat settings, CABAC           : Yes\nFormat settings, ReFrames        : 6 frames\nFormat settings, GOP             : M=1, N=6\nCodec ID                         : V_MPEG4/ISO/AVC\nDuration                         : 1h 40mn\nBit rate                         : 2 542 Kbps\nWidth                            : 1 280 pixels\nHeight                           : 528 pixels\nDisplay aspect ratio             : 2.40:1\nFrame rate                       : 23.976 fps\nColor space                      : YUV\nChroma subsampling               : 4:2:0\nBit depth                        : 8 bits\nScan type                        : Progressive\nBits/(Pixel*Frame)               : 0.157\nStream size                      : 1.74 GiB (83%)\nWriting library                  : x264 core 114 r1913 5fd3dce\nLanguage                         : English\n\nAudio\nID                               : 2\nFormat                           : AC-3\nFormat/Info                      : Audio Coding 3\nMode extension                   : CM (complete main)\nCodec ID                         : A_AC3\nDuration                         : 1h 40mn\nBit rate mode                    : Constant\nBit rate                         : 448 Kbps\nChannel(s)                       : 6 channels\nChannel positions                : Front: L C R, Side: L R, LFE\nSampling rate                    : 48.0 KHz\nBit depth                        : 16 bits\nCompression mode                 : Lossy\nStream size                      : 322 MiB (15%)\nLanguage                         : English\n\nSubs     : Ro","torrent":{"xt":"urn:btih:a73ff8fc98535ef7838a2aed089a469d4ffb6a40","amp;dn":"Red.Riding.Hood.2011.720p.BRRip.x264.AC3-HDLiTE","amp;tr":["udp%3A%2F%2Ftracker.openbittorrent.com%3A80","udp%3A%2F%2Fopen.demonii.com%3A1337","udp%3A%2F%2Ftracker.coppersurfer.tk%3A6969","udp%3A%2F%2Fexodus.desync.com%3A6969"],"infoHash":"a73ff8fc98535ef7838a2aed089a469d4ffb6a40","infoHashBuffer":{"type":"Buffer","data":[167,63,248,252,152,83,94,247,131,138,42,237,8,154,70,157,79,251,106,64]},"announce":[],"urlList":[]}}